<?xml version="1.0" encoding="utf-8"?>
<!-- Generator: Adobe Illustrator 25.0.0, SVG Export Plug-In . SVG Version: 6.00 Build 0)  -->
<svg version="1.1" id="Camada_1" xmlns="http://www.w3.org/2000/svg" xmlns:xlink="http://www.w3.org/1999/xlink" x="0px" y="0px"
	 viewBox="0 0 924.7 500" style="enable-background:new 0 0 924.7 500;" xml:space="preserve">
<style type="text/css">
	.st0{fill:#002A61;}
	.st1{fill-rule:evenodd;clip-rule:evenodd;fill:#002A61;}
	.st2{fill:none;stroke:#002A61;stroke-width:3;stroke-miterlimit:10;}
	.st3{fill:#FFFFFF;stroke:#002A61;stroke-width:3;stroke-miterlimit:10;}
</style>
<g>
	<g>
		<path class="st0" d="M83.7,149.2H44.5v-6.9h46.9v63.8c0,25.2-17.3,40.2-40.5,40.2s-40.4-16.4-40.4-40.2h7.3
			c0,19.5,14.2,32.9,33.1,32.9s32.8-11.7,32.8-32.9V149.2z"/>
		<path class="st0" d="M169.2,244.7v-13c-5.6,9.9-15.6,14-25.7,14.2c-19.3,0-32.6-11.8-32.6-31.9v-41.7h7.2v41.5
			c0,16.4,10.1,25.2,25.7,25c14.9-0.1,25.3-11.4,25.3-26.3v-40.2h7.2v72.4H169.2z"/>
		<path class="st0" d="M202.1,172.4v12.9c5.6-9.9,15.6-14,25.7-14.2c19.3,0,32.6,11.8,32.6,31.9v41.7h-7.2v-41.5
			c0-16.4-10.1-25.2-25.7-25c-14.9,0.1-25.3,11.4-25.3,26.3v40.2h-7.2v-72.2H202.1z"/>
		<path class="st0" d="M292.6,150.6v21.8h24.6v6h-24.6v44c0,9.8,2,16.7,13.3,16.7c3.5,0,7.5-1.2,11.1-2.9l2.5,5.8
			c-4.5,2.2-9.1,3.7-13.6,3.7c-15.4,0-20.3-9.1-20.3-23.3v-44h-15.4v-6h15.4v-21.1L292.6,150.6z"/>
		<path class="st0" d="M330.4,208.7c0-23,16.4-37.6,36.7-37.6c20.3,0,36.7,14.6,36.7,37.6s-16.4,37-36.7,37
			C346.8,245.7,330.4,231.7,330.4,208.7z M396.8,208.7c0-18.7-13.3-30.9-29.7-30.9s-29.7,12.1-29.7,30.9s13.3,30,29.7,30
			S396.8,227.4,396.8,208.7z"/>
		<path class="st0" d="M519.8,234.6c-7.3,7.3-16.8,10.8-26.3,10.8c-20.3,0-37.1-14-37.1-36.9s16.2-36.9,37.1-36.9
			c9.5,0,19,3.7,26.3,10.8l-4.7,4.5c-5.8-5.8-13.9-8.6-21.6-8.6c-16.4,0-30.1,10.7-30.1,30.1c0,19.4,13.7,30.1,30.1,30.1
			c7.8,0,15.6-3.1,21.5-8.9L519.8,234.6z"/>
		<path class="st0" d="M532.5,208.7c0-23,16.4-37.6,36.7-37.6c20.3,0,36.7,14.6,36.7,37.6s-16.4,37-36.7,37
			C548.9,245.7,532.5,231.7,532.5,208.7z M598.9,208.7c0-18.7-13.3-30.9-29.7-30.9s-29.7,12.1-29.7,30.9s13.3,30,29.7,30
			S598.9,227.4,598.9,208.7z"/>
		<path class="st0" d="M729.5,209v-7.6c0-13.9-9.4-23.7-23.1-23.7c-13.7,0-23.3,10.2-23.3,24.1v42.8H676v-42.8
			c0-13.9-9.5-24-23.3-24c-13.7,0-23.1,10.1-23.1,24v42.8h-7.2v-72.2h6.7l0.1,12c5-9.5,14.2-13.5,23.5-13.5c11,0,22.5,5,26.8,17.8
			C684,177,695.3,171,706.4,171c17.7,0,30.3,12.4,30.3,30.4v3.3L729.5,209z"/>
	</g>
	<g>
		<path class="st0" d="M15.3,349.5c0-25.5,18.2-41.8,40.8-41.8s40.8,16.3,40.8,41.8s-18.2,41.2-40.8,41.2S15.3,375,15.3,349.5z
			 M89.1,349.5c0-20.8-14.8-34.3-33-34.3c-18.2,0-33,13.5-33,34.3s14.8,33.4,33,33.4C74.3,382.8,89.1,370.3,89.1,349.5z"/>
		<path class="st0" d="M226.4,379.3c-9.3,9.1-19,12.7-30.9,12.7c-23.3,0-42.6-14-42.6-42.5s19.4-42.5,42.6-42.5
			c11.4,0,20.2,3.3,29,11.9L212,332.1c-4.7-4.2-10.6-6.3-16.1-6.3c-13.3,0-23.1,9.8-23.1,23.8c0,15.3,10.4,23.4,22.8,23.4
			c6.3,0,12.7-1.8,17.6-6.7L226.4,379.3z"/>
		<path class="st0" d="M256.9,286.7c0,15.5-23.4,15.5-23.4,0S256.9,271.2,256.9,286.7z M235.2,309v80.5h19.8V309H235.2z"/>
		<path class="st0" d="M356.3,275.8v113.7h-18.5l-1.3-11.1c-6.2,9.6-16.1,12.9-25.9,12.9c-23.6,0-41.3-15.6-41.3-42
			c0-27.7,17.4-42,40.8-42c8.5,0,21.6,4.6,26.4,12.9v-44.4H356.3z M289.1,349.3c0,14,10.1,23.6,22.8,23.6c12.5,0,23.3-9.1,23.3-23.6
			c0-14-10.7-23.4-23.3-23.4C299.2,325.9,289.1,334.8,289.1,349.3z"/>
		<path class="st0" d="M437.1,309.3h19v80.2h-18.7l-1-11.7c-4.6,9.4-17.1,14-26,14.2c-23.8,0.2-41.3-14.5-41.3-42.6
			c0-27.7,18.4-42.1,41.8-42c10.7,0,21,5,25.5,13L437.1,309.3z M389,349.3c0,15.3,10.6,24.4,23.8,24.4c31.2,0,31.2-48.6,0-48.6
			C399.6,325.1,389,334,389,349.3z"/>
		<path class="st0" d="M556.2,275.8v113.7h-18.5l-1.3-11.1c-6.2,9.6-16.1,12.9-25.9,12.9c-23.6,0-41.3-15.6-41.3-42
			c0-27.7,17.4-42,40.8-42c8.5,0,21.6,4.6,26.4,12.9v-44.4H556.2z M489,349.3c0,14,10.1,23.6,22.8,23.6c12.5,0,23.3-9.1,23.3-23.6
			c0-14-10.7-23.4-23.3-23.4C499.1,325.9,489,334.8,489,349.3z"/>
		<path class="st0" d="M637.1,309.3h19v80.2h-18.7l-1-11.7c-4.6,9.4-17.1,14-26,14.2c-23.8,0.2-41.3-14.5-41.3-42.6
			c0-27.7,18.4-42.1,41.8-42c10.7,0,21,5,25.5,13L637.1,309.3z M588.8,287.7c3.9-9.6,10.2-16.4,21-14c7.6,1.8,15.1,10.3,20.2,0.2
			l13,6.2c-4.7,12.5-12.9,16.3-20.5,14.3c-8-2.3-15-11.9-21.3,0L588.8,287.7z M588.9,349.3c0,15.3,10.6,24.4,23.8,24.4
			c31.2,0,31.2-48.6,0-48.6C599.5,325.1,588.9,334,588.9,349.3z"/>
		<path class="st0" d="M732,386.3c-6,3.2-13.1,5-21.2,5c-26,0-41.7-18.7-41.7-41.8c0-22.9,15.9-41.8,41.5-41.8
			c8,0,15.1,1.8,21.1,5.1 M729,336.4c-3.7-6.2-10-10.6-18.2-10.6c-14.3,0-21.8,11.7-21.8,23.8c0,12.2,7.3,23.6,21.8,23.6
			c8.5,0,14.5-3.9,18.1-9.7"/>
	</g>
	<g>
		<path class="st1" d="M123.5,101.2l3.5-9.4c1.6-4.2-1.5-8.7-6-8.7h-19.5c-4.3,0-8.1,2.6-9.6,6.6L78.8,125c-0.5,1.4,0.5,2.8,1.9,2.8
			h6.8c1.3,0,2.4-0.8,2.9-2l11.3-30.4h12l-1.9,5c-0.5,1.4,0.5,2.8,1.9,2.8h6.8C121.9,103.2,123.1,102.4,123.5,101.2z"/>
		<path class="st1" d="M175.7,83.1h-33.6c-4.3,0-8.1,2.6-9.6,6.6l-10.9,29.3c-1.6,4.2,1.5,8.7,6,8.7h33.6c4.3,0,8.1-2.6,9.6-6.6
			l10.9-29.3C183.3,87.6,180.2,83.1,175.7,83.1z M160.9,115.5h-26.1l7.5-20.1h26.1L160.9,115.5z"/>
		<path class="st1" d="M242.3,67.9h-6.8c-1.3,0-2.4,0.8-2.9,2l-5,13.2h-19.3h-5.6h-6.3c-4.3,0-8.1,2.6-9.6,6.6l-10.9,29.3
			c-1.6,4.2,1.5,8.7,6,8.7h14.6l0,0l9.2,0c1.3,0,2.4-0.8,2.9-2l2.8-7.5c0.5-1.4-0.5-2.8-1.9-2.8h-7.4h-4h-8.9l7.5-20.1h4.4h5H223
			L212,125c-0.5,1.4,0.5,2.8,1.9,2.8h6.8c1.3,0,2.4-0.8,2.9-2l20.7-55.1C244.8,69.4,243.8,67.9,242.3,67.9z"/>
		<path class="st1" d="M347.6,83.1h-41.3c-4.3,0-8.1,2.6-9.6,6.6L283.6,125c-0.5,1.4,0.5,2.8,1.9,2.8h6.8c1.3,0,2.4-0.8,2.9-2
			l11.3-30.4h10.9l-11.2,29.9c-0.5,1.4,0.5,2.8,1.9,2.8h6.8c1.3,0,2.4-0.8,2.9-2l11.5-30.7h11l-11,29.6c-0.5,1.4,0.5,2.8,1.9,2.8
			h6.8c1.3,0,2.4-0.8,2.9-2l12.7-33.9C355.2,87.6,352.1,83.1,347.6,83.1z"/>
		<path class="st1" d="M285.3,83.1h-25.9h-0.6c-4.3,0-8.1,2.6-9.6,6.6l-1,2.8c-0.5,1.4,0.5,2.8,1.9,2.8h8.9h10.9h8.1l-7.5,20.1
			h-26.3l1.4-3.9h20.9c1.3,0,2.4-0.8,2.9-2l3.1-8.3c0.5-1.3-0.5-2.8-1.9-2.8c0,0,0,0,0,0l-24.9,0c-4.3,0-8.4,3.5-9.9,7.5l-3.3,8.9
			l0,0l-1.6,4.2c-1.6,4.2,1.5,8.7,6,8.7h16.6l0,0h22.6c1,0,1.9-0.6,2.3-1.6l12.8-34.3C292.9,87.6,289.8,83.1,285.3,83.1z"/>
		<path class="st1" d="M80.6,83.1H46.7c-4.3,0-8.1,2.6-9.6,6.6l-18.9,50.4c-0.5,1.4,0.5,2.8,1.9,2.8H27c1.3,0,2.4-0.8,2.9-2
			l17.1-45.6h26.4L67.5,111l0,0l-1.6,4.5h-6H44.6c-1.3,0-2.4,0.8-2.9,2l-2.8,7.5c-0.5,1.4,0.5,2.8,1.9,2.8l25.1,0v0H66
			c4.3,0,8.1-2.6,9.6-6.6l1.4-3.6v0l9.6-25.6C88.2,87.6,85,83.1,80.6,83.1z"/>
	</g>
	<circle class="st2" cx="764.7" cy="161.3" r="30"/>
	<path class="st2" d="M730.3,390.6l0.4-80.7h-17v-74c0,0,1.8-32.7,36.2-36.2h28.9c0,0,34,1.6,36.8,36.8v73.5h-17.1v80.7"/>
	<line class="st2" x1="764.3" y1="310.3" x2="764.3" y2="390.1"/>
	<circle class="st2" cx="848.2" cy="200.6" r="24.5"/>
	<path class="st2" d="M874.6,390.2V310v17h17.5v-65.7c-2.4-25.6-27.6-27.6-27.6-27.6h-40.8"/>
	<line class="st3" x1="849.9" y1="387.9" x2="849.9" y2="329.5"/>
	<polyline class="st2" points="824,390.2 824,310.2 824,326.9 806.9,326.9 	"/>
</g>
</svg>
